<?xml version="1.0" encoding="utf-8"?>
<svg id="master-artboard" version="1.1" xmlns="http://www.w3.org/2000/svg">
	<g>
		<path d="M 493.0885314941406 704.4472045898438 L 507.4890441894531 717.3048095703125 L 525.4896850585938 723.4764404296875 L 544.5189819335938 717.3048095703125 L 564.5768432617188 728.105224609375 L 599.5494995117188 736.848388671875 L 660.2374267578125 735.8197631835938 L 680.8095703125 698.7898559570312 L 702.9246215820312 682.846435546875 L 729.1541748046875 707.5330200195312 L 797.0422973632812 673.5889282226562 L 856.1873168945312 707.0187377929688 L 863.3875732421875 722.962158203125 L 877.7880859375 730.6766967773438 L 888.5884399414062 743.5343017578125 L 909.6749267578125 725.0193481445312 L 913.2750854492188 708.04736328125 L 933.3329467773438 702.3900146484375 L 938.9902954101562 689.01806640625 L 958.01953125 684.3893432617188 L 984.7633666992188 702.904296875 L 1009.9642333984375 732.7339477539062 L 1043.73583984375 721.0017700195312 L 1077.2596435546875 697.05615234375 L 1093.5426025390625 694.1826782226562 L 1102.1630859375 679.8153686523438 L 1132.313232421875 669.5119018554688 L 1147.2008056640625 680.9966430664062 L 1147.2008056640625 978.7496948242188 L 493.6919250488281 979.2103271484375 L 493.0885314941406 704.4472045898438 Z" style="fill: rgb(46, 47, 57); fill-opacity: 1; stroke: rgb(0, 0, 0); stroke-opacity: 1; stroke-width: 0; paint-order: stroke;" />
	</g>
</svg>
