<?xml version="1.0" encoding="utf-8"?>
<svg version="1.1" x="0px" y="0px" style="enable-background:new 0 0 1400 980;" width="980px" height="1400px" id="master-artboard" xmlns="http://www.w3.org/2000/svg">
	<g>
		<path d="M 493.1212158203125 608.0109252929688 L 510.82733154296875 603.5844116210938 L 520.2337036132812 610.2241821289062 L 560.6257934570312 580.3450927734375 L 584.4183959960938 579.7918090820312 L 602.6778564453125 572.5986938476562 L 631.4503173828125 591.4114379882812 L 641.9633178710938 583.6650390625 L 662.9893188476562 598.6045532226562 L 675.1622924804688 584.2183227539062 L 682.3554077148438 579.2384643554688 L 734.9204711914062 627.9302978515625 L 769.22607421875 637.8900146484375 L 792.46533203125 617.4172973632812 L 802.9783325195312 624.05712890625 L 846.1370239257812 595.8379516601562 L 854.9901123046875 601.9244384765625 C 854.9901123046875 601.9244384765625 863.8432006835938 591.4114379882812 864.396484375 591.4114379882812 C 864.9497680664062 591.4114379882812 879.3359985351562 604.6910400390625 879.3359985351562 604.6910400390625 L 923.601318359375 620.1838989257812 L 927.4745483398438 614.097412109375 L 963.4401245117188 605.2443237304688 L 980.0396118164062 610.7775268554688 L 1001.0656127929688 605.2443237304688 L 1063.59033203125 605.2443237304688 L 1079.636474609375 596.3912963867188 L 1094.022705078125 604.6910400390625 L 1108.9622802734375 604.1376953125 L 1118.9219970703125 598.05126953125 L 1141.60791015625 620.7371826171875 L 1146.5877685546875 617.9706420898438 L 1147.6944580078125 978.73291015625 L 492.5679016113281 979.2861938476562 L 493.1212158203125 608.0109252929688 Z" style="fill: rgb(52, 52, 61); fill-opacity: 1; stroke: rgb(0, 0, 0); stroke-opacity: 1; stroke-width: 0; paint-order: stroke;" />
	</g>
</svg>
