<?xml version="1.0" encoding="utf-8"?>
<svg id="master-artboard" version="1.1" xmlns="http://www.w3.org/2000/svg">
	<g>
		<path d="M 492.50189208984375 818.3917236328125 L 509.1408386230469 830.8709106445312 L 554.8980102539062 827.6355590820312 L 574.7723388671875 798.5173950195312 L 584.0162353515625 803.1392822265625 L 616.3698120117188 780.4918212890625 L 627.4624633789062 790.6600952148438 L 644.1014404296875 784.1893920898438 L 675.5306396484375 796.6685791015625 L 699.1024780273438 822.0892333984375 L 730.0694580078125 812.3831787109375 L 740.2377319335938 829.0221557617188 L 756.876708984375 824.8624267578125 L 798.4741821289062 843.8123779296875 L 842.8447265625 820.240478515625 L 860.8703002929688 819.3161010742188 L 877.047119140625 810.0722045898438 L 883.517822265625 796.6685791015625 L 904.7787475585938 787.8869018554688 L 914.9469604492188 786.0381469726562 L 934.359130859375 794.3576049804688 L 949.1492919921875 781.4161987304688 L 963.4773559570312 792.5088500976562 L 994.4443359375 781.4161987304688 L 1009.2344970703125 783.2649536132812 L 1043.8990478515625 812.3831787109375 L 1050.659912109375 807.37939453125 L 1081.224609375 829.2112426757812 L 1105.8350830078125 815.7151489257812 L 1146.72021484375 817.302978515625 L 1147.9110107421875 979.6527099609375 L 493.3673095703125 979.2566528320312 L 492.50189208984375 818.3917236328125 Z" style="fill: rgb(31, 32, 40); fill-opacity: 1; stroke: rgb(0, 0, 0); stroke-opacity: 1; stroke-width: 0; paint-order: fill;" />
	</g>
</svg>
